<?xml version="1.0" encoding="UTF-8"?>
<svg id="Logo" xmlns="http://www.w3.org/2000/svg" version="1.1" xmlns:xlink="http://www.w3.org/1999/xlink" viewBox="0 0 160 160">
  <!-- Generator: Adobe Illustrator 29.8.1, SVG Export Plug-In . SVG Version: 2.1.1 Build 2)  -->
  <defs>
    <style>
      .st0 {
        fill: url(#Degradado_Color_3);
      }

      .st1 {
        fill: url(#Degradado_Color_31);
      }

      .st2 {
        fill: url(#Degradado_Color_33);
      }

      .st3 {
        fill: #f7f7f8;
      }

      .st4 {
        fill: url(#Degradado_Color_4);
      }

      .st5 {
        fill: url(#Degradado_Color_32);
      }

      .st6 {
        fill: url(#Degradados_3);
      }
    </style>
    <linearGradient id="Degradado_Color_4" data-name="Degradado Color 4" x1="38.75" y1="80.25" x2="134.69" y2="80.25" gradientUnits="userSpaceOnUse">
      <stop offset="0" stop-color="#57eeff"/>
      <stop offset="1" stop-color="#84c6a6"/>
    </linearGradient>
    <linearGradient id="Degradado_Color_3" data-name="Degradado Color 3" x1="11" y1="80.25" x2="108.22" y2="80.25" gradientUnits="userSpaceOnUse">
      <stop offset=".36" stop-color="#233f92"/>
      <stop offset="1" stop-color="#0eb9dc"/>
    </linearGradient>
    <linearGradient id="Degradado_Color_31" data-name="Degradado Color 3" x1="32.87" x2="130.49" xlink:href="#Degradado_Color_3"/>
    <linearGradient id="Degradado_Color_32" data-name="Degradado Color 3" x2="130.49" xlink:href="#Degradado_Color_3"/>
    <linearGradient id="Degradado_Color_33" data-name="Degradado Color 3" x2="130.49" xlink:href="#Degradado_Color_3"/>
    <linearGradient id="Degradados_3" data-name="Degradados 3" x1="44.27" y1="202.55" x2="204.13" y2="42.69" gradientUnits="userSpaceOnUse">
      <stop offset="0" stop-color="#00ff7b"/>
      <stop offset="1" stop-color="lime"/>
    </linearGradient>
  </defs>
  <ellipse class="st4" cx="86.72" cy="80.25" rx="47.97" ry="47.43"/>
  <path class="st3" d="M116.68,96.52h31.11c3.38,0,5.59,3.53,4.07,6.52l-2.68,5.29c-.77,1.53-2.35,2.49-4.07,2.49h-75.76c-3.64,0-5.81-4.01-3.79-7.01l23.36-28.82c2.03-3.01-.18-7.04-3.84-7.01l-41.98.45,7.23-14.84,82.16.11c3.66,0,5.84,4.03,3.81,7.04l-23.42,28.76c-2.02,2.99.15,7.01,3.79,7.01Z"/>
  <g>
    <g>
      <path class="st0" d="M108.18,32.21c-6.75-2.35-7.54-11.14-8.65-17.45-.87-4.94-5.11-8.73-10.35-8.76-.14,0-.27,0-.41,0-.07,0,.27,0,.2,0-5.17.01-10.15,3.59-10.92,8.47-.93,5.88-4.82,11.21-10.88,13.91-6.51,2.9-13.84,2.02-19.3-1.69-4.32-2.94-10.16-2.67-13.92.9-.12.11-.24.23-.36.34-3.65,3.51-4.21,9.06-1.13,13.04,3.7,4.78,4.9,11.18,2.61,17.19-2.46,6.44-8.3,10.77-14.91,11.83-5.17.83-9.14,4.88-9.17,9.88,0,.13,0,.26,0,.39,0,.06,0,.13,0,.19.01,4.93,3.76,9.3,8.87,10.04,6.15.89,11.74,4.6,14.57,10.39,3.03,6.21,2.11,13.21-1.77,18.42-3.08,4.12-2.8,9.7.94,13.29.12.11.24.23.36.34,3.67,3.48,9.49,4.02,13.65,1.08,5.01-3.53,11.71-4.68,18.01-2.49,6.75,2.35,11.28,7.92,12.39,14.23.87,4.94,5.11,8.73,10.35,8.76.14,0,.27,0,.41,0,.07,0,.13,0,.2,0,5.17-.01,9.74-3.59,10.51-8.47.93-5.88,2.62-15.04,8.69-17.74,0-.35-52.18-14.29-52.18-14.29l-9-63s63-18,61.18-18.79Z"/>
      <path class="st1" d="M130.48,39c-.32,5.52-6.58,8.82-11.76,6.25-1.87-.93-3.76-1.74-5.69-2.44-5.86-2.12-12.02-3.17-18.49-3.17-12.51,0-22.68,3.79-30.52,11.37-7.84,7.58-11.76,17.4-11.76,29.46,0,11.67,3.82,21.29,11.45,28.87,7.63,7.58,17.26,11.37,28.88,11.37,6.77,0,13.22-1.13,19.35-3.4,1.95-.72,3.88-1.56,5.79-2.52,5.36-2.7,11.84.88,11.84,6.62v1.42c0,2.68-1.51,5.14-3.94,6.52-3.89,2.2-8.02,3.92-12.4,5.16-5.89,1.67-12.27,2.51-19.15,2.51-8.75,0-16.84-1.35-24.27-4.06-7.43-2.71-13.95-6.69-19.58-11.96-5.58-5.17-9.86-11.26-12.86-18.27-3-7.01-4.49-14.48-4.49-22.41s1.5-15.37,4.49-22.34c3-6.96,7.33-13.08,13.01-18.35,5.68-5.32,12.19-9.34,19.54-12.07,7.35-2.73,15.29-4.1,23.84-4.1,6.72,0,13.13.92,19.23,2.77,4.62,1.4,9.13,3.34,13.54,5.82,2.58,1.45,4.12,4.11,3.96,6.94h0ZM130.48,39c-.32,5.52-6.58,8.82-11.76,6.25-1.87-.93-3.76-1.74-5.69-2.44-5.86-2.12-12.02-3.17-18.49-3.17-12.51,0-22.68,3.79-30.52,11.37-7.84,7.58-11.76,17.4-11.76,29.46,0,11.67,3.82,21.29,11.45,28.87,7.63,7.58,17.26,11.37,28.88,11.37,6.77,0,13.22-1.13,19.35-3.4,1.95-.72,3.88-1.56,5.79-2.52,5.36-2.7,11.84.88,11.84,6.62v1.42c0,2.68-1.51,5.14-3.94,6.52-3.89,2.2-8.02,3.92-12.4,5.16-5.89,1.67-12.27,2.51-19.15,2.51-8.75,0-16.84-1.35-24.27-4.06-7.43-2.71-13.95-6.69-19.58-11.96-5.58-5.17-9.86-11.26-12.86-18.27-3-7.01-4.49-14.48-4.49-22.41s1.5-15.37,4.49-22.34c3-6.96,7.33-13.08,13.01-18.35,5.68-5.32,12.19-9.34,19.54-12.07,7.35-2.73,15.29-4.1,23.84-4.1,6.72,0,13.13.92,19.23,2.77,4.62,1.4,9.13,3.34,13.54,5.82,2.58,1.45,4.12,4.11,3.96,6.94h0Z"/>
    </g>
    <g>
      <path class="st5" d="M108.18,32.21c-6.75-2.35-7.54-11.14-8.65-17.45-.87-4.94-5.11-8.73-10.35-8.76-.14,0-.27,0-.41,0-.07,0,.27,0,.2,0-5.17.01-10.15,3.59-10.92,8.47-.93,5.88-4.82,11.21-10.88,13.91-6.51,2.9-13.84,2.02-19.3-1.69-4.32-2.94-10.16-2.67-13.92.9-.12.11-.24.23-.36.34-3.65,3.51-4.21,9.06-1.13,13.04,3.7,4.78,4.9,11.18,2.61,17.19-2.46,6.44-8.3,10.77-14.91,11.83-5.17.83-9.14,4.88-9.17,9.88,0,.13,0,.26,0,.39,0,.06,0,.13,0,.19.01,4.93,3.76,9.3,8.87,10.04,6.15.89,11.74,4.6,14.57,10.39,3.03,6.21,2.11,13.21-1.77,18.42-3.08,4.12-2.8,9.7.94,13.29.12.11.24.23.36.34,3.67,3.48,9.49,4.02,13.65,1.08,5.01-3.53,11.71-4.68,18.01-2.49,6.75,2.35,11.28,7.92,12.39,14.23.87,4.94,5.11,8.73,10.35,8.76.14,0,.27,0,.41,0,.07,0,.13,0,.2,0,5.17-.01,9.74-3.59,10.51-8.47.93-5.88,2.62-15.04,8.69-17.74,0-.35-52.18-14.29-52.18-14.29l-9-63s63-18,61.18-18.79Z"/>
      <path class="st2" d="M130.48,39c-.32,5.52-6.58,8.82-11.76,6.25-1.87-.93-3.76-1.74-5.69-2.44-5.86-2.12-12.02-3.17-18.49-3.17-12.51,0-22.68,3.79-30.52,11.37-7.84,7.58-11.76,17.4-11.76,29.46,0,11.67,3.82,21.29,11.45,28.87,7.63,7.58,17.26,11.37,28.88,11.37,6.77,0,13.22-1.13,19.35-3.4,1.95-.72,3.88-1.56,5.79-2.52,5.36-2.7,11.84.88,11.84,6.62v1.42c0,2.68-1.51,5.14-3.94,6.52-3.89,2.2-8.02,3.92-12.4,5.16-5.89,1.67-12.27,2.51-19.15,2.51-8.75,0-16.84-1.35-24.27-4.06-7.43-2.71-13.95-6.69-19.58-11.96-5.58-5.17-9.86-11.26-12.86-18.27-3-7.01-4.49-14.48-4.49-22.41s1.5-15.37,4.49-22.34c3-6.96,7.33-13.08,13.01-18.35,5.68-5.32,12.19-9.34,19.54-12.07,7.35-2.73,15.29-4.1,23.84-4.1,6.72,0,13.13.92,19.23,2.77,4.62,1.4,9.13,3.34,13.54,5.82,2.58,1.45,4.12,4.11,3.96,6.94h0ZM130.48,39c-.32,5.52-6.58,8.82-11.76,6.25-1.87-.93-3.76-1.74-5.69-2.44-5.86-2.12-12.02-3.17-18.49-3.17-12.51,0-22.68,3.79-30.52,11.37-7.84,7.58-11.76,17.4-11.76,29.46,0,11.67,3.82,21.29,11.45,28.87,7.63,7.58,17.26,11.37,28.88,11.37,6.77,0,13.22-1.13,19.35-3.4,1.95-.72,3.88-1.56,5.79-2.52,5.36-2.7,11.84.88,11.84,6.62v1.42c0,2.68-1.51,5.14-3.94,6.52-3.89,2.2-8.02,3.92-12.4,5.16-5.89,1.67-12.27,2.51-19.15,2.51-8.75,0-16.84-1.35-24.27-4.06-7.43-2.71-13.95-6.69-19.58-11.96-5.58-5.17-9.86-11.26-12.86-18.27-3-7.01-4.49-14.48-4.49-22.41s1.5-15.37,4.49-22.34c3-6.96,7.33-13.08,13.01-18.35,5.68-5.32,12.19-9.34,19.54-12.07,7.35-2.73,15.29-4.1,23.84-4.1,6.72,0,13.13.92,19.23,2.77,4.62,1.4,9.13,3.34,13.54,5.82,2.58,1.45,4.12,4.11,3.96,6.94h0Z"/>
    </g>
  </g>
  <circle class="st6" cx="144.73" cy="102.09" r="10.04"/>
</svg>