<?xml version="1.0" encoding="UTF-8"?>
<svg id="Logo" xmlns="http://www.w3.org/2000/svg" viewBox="0 0 127.94 130.13">
  <defs>
    <style>
      .cls-1 {
        fill: #fff;
      }

      .cls-1, .cls-2, .cls-3, .cls-4 {
        stroke: #000;
      }

      .cls-1, .cls-3, .cls-4 {
        stroke-width: 2.64px;
      }

      .cls-2 {
        fill: none;
        stroke-width: 2px;
      }

      .cls-3, .cls-5 {
        fill: #233f92;
      }

      .cls-6 {
        fill: #2dff7a;
      }

      .cls-7 {
        fill: #57eeff;
      }

      .cls-4 {
        fill: #00ff7b;
      }
    </style>
  </defs>
  <g>
    <g>
      <path class="cls-5" d="M77.38,16.38c-4.22-1.47-4.71-6.96-5.4-10.91C71.44,2.39,68.79.02,65.51,0c-.09,0-.17,0-.26,0-.04,0,.17,0,.13,0-3.23,0-6.34,2.24-6.82,5.29-.58,3.67-3.01,7-6.8,8.69-4.07,1.81-8.65,1.26-12.06-1.06-2.7-1.84-6.35-1.67-8.7.56-.08.07-.15.14-.22.21-2.28,2.19-2.63,5.66-.71,8.15,2.31,2.99,3.07,6.99,1.63,10.74-1.54,4.03-5.19,6.73-9.32,7.39-3.23.52-5.71,3.05-5.73,6.17,0,.08,0,.16,0,.24,0,.04,0,.08,0,.12,0,3.08,2.35,5.81,5.54,6.27,3.85.55,7.34,2.87,9.11,6.49,1.9,3.88,1.32,8.26-1.11,11.51-1.92,2.58-1.75,6.06.59,8.31.07.07.15.14.22.21,2.3,2.18,5.93,2.51,8.53.67,3.13-2.21,7.32-2.93,11.26-1.56,4.22,1.47,7.05,4.95,7.74,8.89.54,3.08,3.19,5.46,6.47,5.47.09,0,.17,0,.26,0,.04,0,.08,0,.13,0,3.23,0,6.09-2.24,6.57-5.29.58-3.67,1.64-9.4,5.43-11.09V16.38Z"/>
      <ellipse class="cls-7" cx="63.97" cy="46.41" rx="29.98" ry="29.64"/>
      <g>
        <path class="cls-5" d="M82.7,56.57h19.45c2.12,0,3.49,2.2,2.55,4.08l-1.67,3.31c-.48.95-1.47,1.56-2.55,1.56h-47.35c-2.27,0-3.63-2.51-2.37-4.38l14.6-18.01c1.27-1.88-.11-4.4-2.4-4.38l-26.24.28,4.52-9.28,51.35.07c2.28,0,3.65,2.52,2.38,4.4l-14.64,17.98c-1.26,1.87.09,4.38,2.37,4.38Z"/>
        <path class="cls-5" d="M91.32,20.63c-.2,3.45-4.11,5.51-7.35,3.9-1.17-.58-2.35-1.09-3.56-1.52-3.66-1.32-7.52-1.98-11.55-1.98-7.82,0-14.18,2.37-19.08,7.11-4.9,4.74-7.35,10.88-7.35,18.41,0,7.29,2.39,13.31,7.16,18.04,4.77,4.74,10.79,7.11,18.05,7.11,4.23,0,8.26-.71,12.09-2.12,1.22-.45,2.43-.98,3.62-1.58,3.35-1.69,7.4.55,7.4,4.14v.89c0,1.67-.94,3.22-2.46,4.07-2.43,1.37-5.01,2.45-7.75,3.23-3.68,1.05-7.67,1.57-11.97,1.57-5.47,0-10.53-.85-15.17-2.54s-8.72-4.18-12.24-7.48c-3.49-3.23-6.16-7.04-8.04-11.42-1.87-4.38-2.81-9.05-2.81-14.01s.94-9.61,2.81-13.96c1.87-4.35,4.58-8.18,8.13-11.47,3.55-3.32,7.62-5.84,12.21-7.55s9.56-2.56,14.9-2.56c4.2,0,8.21.58,12.02,1.73,2.89.87,5.71,2.09,8.46,3.64,1.61.91,2.57,2.57,2.47,4.34h0ZM91.32,20.63c-.2,3.45-4.11,5.51-7.35,3.9-1.17-.58-2.35-1.09-3.56-1.52-3.66-1.32-7.52-1.98-11.55-1.98-7.82,0-14.18,2.37-19.08,7.11-4.9,4.74-7.35,10.88-7.35,18.41,0,7.29,2.39,13.31,7.16,18.04,4.77,4.74,10.79,7.11,18.05,7.11,4.23,0,8.26-.71,12.09-2.12,1.22-.45,2.43-.98,3.62-1.58,3.35-1.69,7.4.55,7.4,4.14v.89c0,1.67-.94,3.22-2.46,4.07-2.43,1.37-5.01,2.45-7.75,3.23-3.68,1.05-7.67,1.57-11.97,1.57-5.47,0-10.53-.85-15.17-2.54s-8.72-4.18-12.24-7.48c-3.49-3.23-6.16-7.04-8.04-11.42-1.87-4.38-2.81-9.05-2.81-14.01s.94-9.61,2.81-13.96c1.87-4.35,4.58-8.18,8.13-11.47,3.55-3.32,7.62-5.84,12.21-7.55s9.56-2.56,14.9-2.56c4.2,0,8.21.58,12.02,1.73,2.89.87,5.71,2.09,8.46,3.64,1.61.91,2.57,2.57,2.47,4.34h0Z"/>
      </g>
      <ellipse class="cls-6" cx="100.3" cy="60.06" rx="6.35" ry="6.28"/>
    </g>
    <g>
      <path class="cls-2" d="M65.26,0s.08,0,.12,0c0,0,0,0,0,0,.04,0-.17,0-.13,0Z"/>
      <path class="cls-2" d="M80.41,23.01c-3.66-1.32-7.52-1.98-11.55-1.98-7.82,0-14.18,2.37-19.08,7.11-.54.52-1.05,1.07-1.53,1.63l40.57.06c-1.28-1.87-2.77-3.58-4.43-5.11-.14-.06-.28-.11-.42-.18-1.17-.58-2.35-1.09-3.56-1.52Z"/>
      <path class="cls-2" d="M82.7,56.57h9.44c1.17-3.17,1.81-6.6,1.81-10.17,0-3.19-.52-6.26-1.46-9.14l-12.16,14.93c-1.26,1.87.09,4.38,2.37,4.38Z"/>
      <path class="cls-2" d="M53.12,65.51c-2.27,0-3.63-2.51-2.37-4.38l14.6-18.01c1.27-1.88-.11-4.4-2.4-4.38l-19.57.21c-.63,2.35-.96,4.88-.96,7.59,0,7.29,2.39,13.31,7.16,18.04,4.77,4.74,10.79,7.11,18.05,7.11,4.23,0,8.26-.71,12.09-2.12,1.22-.45,2.43-.98,3.62-1.58.56-.28,1.13-.44,1.71-.52.64-.63,1.25-1.28,1.83-1.96h-33.76Z"/>
      <path class="cls-2" d="M93.95,60.06c0-1.29.39-2.49,1.07-3.48h-12.32c-2.27,0-3.63-2.51-2.37-4.38l12.16-14.93,2.48-3.04c1.27-1.88-.1-4.4-2.38-4.4h-3.77s-40.57-.06-40.57-.06c.48-.56.99-1.1,1.53-1.63,4.9-4.74,11.26-7.11,19.08-7.11,4.04,0,7.89.66,11.55,1.98,1.21.44,2.39.94,3.56,1.52.14.07.28.12.42.18,3.15,1.25,6.74-.78,6.93-4.08.1-1.77-.86-3.43-2.47-4.34-2.75-1.55-5.57-2.77-8.46-3.64-2.34-.71-4.76-1.17-7.24-1.44-.58-1.89-.86-3.96-1.17-5.73C71.44,2.39,68.79.02,65.51,0c-.04,0-.09,0-.13,0-3.23,0-6.34,2.24-6.82,5.29-.58,3.67-3.01,7-6.8,8.69-4.07,1.81-8.65,1.26-12.06-1.06-2.7-1.84-6.35-1.67-8.7.56-.08.07-.15.14-.22.21-2.28,2.19-2.63,5.66-.71,8.15,2.31,2.99,3.07,6.99,1.63,10.74-1.54,4.03-5.19,6.73-9.32,7.39-3.23.52-5.71,3.05-5.73,6.17,0,.08,0,.16,0,.24,0,.04,0,.08,0,.12,0,3.08,2.35,5.81,5.54,6.27,3.85.55,7.34,2.87,9.11,6.49,1.9,3.88,1.32,8.26-1.11,11.51-1.92,2.58-1.75,6.06.59,8.31.07.07.15.14.22.21,2.3,2.18,5.93,2.51,8.53.67,3.13-2.21,7.32-2.93,11.26-1.56,4.22,1.47,7.05,4.95,7.74,8.89.54,3.08,3.19,5.46,6.47,5.47.09,0,.17,0,.26,0,.04,0,.08,0,.13,0,3.23,0,6.09-2.24,6.57-5.29.27-1.72.65-3.88,1.37-5.88,2.52-.25,4.93-.67,7.21-1.32,2.74-.78,5.32-1.85,7.75-3.23,1.52-.86,2.46-2.4,2.46-4.07v-.89c0-2.99-2.81-5.04-5.69-4.66-.57.08-1.15.24-1.71.52-1.19.6-2.4,1.12-3.62,1.58-3.83,1.42-7.86,2.12-12.09,2.12-7.26,0-13.28-2.37-18.05-7.11-4.77-4.74-7.16-10.75-7.16-18.04,0-2.71.32-5.24.96-7.59l19.57-.21c2.29-.02,3.67,2.5,2.4,4.38l-14.6,18.01c-1.26,1.87.09,4.38,2.37,4.38h44.05c-1.92-1.08-3.22-3.12-3.22-5.46Z"/>
      <path class="cls-2" d="M100.3,53.78c-2.2,0-4.14,1.11-5.28,2.79-.67,1-1.07,2.19-1.07,3.48,0,2.34,1.3,4.38,3.22,5.46.92.52,1.99.82,3.13.82,3.51,0,6.35-2.81,6.35-6.28s-2.84-6.28-6.35-6.28Z"/>
    </g>
  </g>
  <g>
    <path class="cls-1" d="M29.46,100.25h0c-.37,2.26-2.72,3.61-4.85,2.8l-.14-.05c-1.49-.57-3.05-.85-4.66-.85-2.75,0-5.01.96-6.79,2.87-1.78,1.92-2.67,4.36-2.67,7.33,0,2.69.75,4.76,2.24,6.23,1.49,1.47,3.61,2.21,6.34,2.21,1.18,0,2.39-.14,3.63-.43h0c1.84-.43,3.53,1.15,3.23,3.02l-.14.89c-.35,2.19-2.09,3.89-4.29,4.2h0c-1.37.19-2.84.28-4.42.28-4.72,0-8.51-1.46-11.35-4.39-2.84-2.93-4.27-6.81-4.27-11.65,0-2.34.37-4.57,1.1-6.69.73-2.12,1.81-4.05,3.22-5.78,1.66-2.02,3.73-3.57,6.21-4.64,2.48-1.07,5.26-1.61,8.34-1.61,1.75,0,3.45.2,5.09.59.2.05.41.1.61.16,2.43.65,3.98,3.03,3.57,5.51Z"/>
    <path class="cls-1" d="M29.6,123.29l2.34-14.85c.31-1.95,1.98-3.38,3.95-3.38h.01c2.46,0,4.34,2.2,3.95,4.63l-2.35,14.85c-.31,1.94-1.98,3.38-3.95,3.38h0c-2.46,0-4.34-2.2-3.95-4.63Z"/>
    <g>
      <path class="cls-1" d="M60.3,108.8c.15.68-.37,1.33-1.07,1.33h-7.86s-.37.26-.56.52-.38.57-.38.82c0,.69.78,1.34,2.35,1.95.69.26,1.24.47,1.63.66,2.19.95,3.72,1.93,4.59,2.95.87,1.02,1.31,2.29,1.31,3.81,0,2.4-.93,4.33-2.78,5.78-1.86,1.46-4.33,2.18-7.42,2.18-1.75,0-3.42-.23-5.01-.69-.62-.18-1.22-.39-1.82-.64-1.59-.66-2.27-2.53-1.51-4.07h0c.74-1.5,2.53-2.11,4.02-1.39.45.22.87.4,1.25.55,1.04.39,2.02.59,2.94.59.8,0,1.44-.18,1.92-.53.48-.35.72-.81.72-1.37,0-.86-1.11-1.74-3.33-2.65-.66-.27-1.18-.48-1.54-.63-1.77-.78-3.02-1.64-3.76-2.56-.74-.92-1.11-2.07-1.11-3.44,0-2.19.91-4.01,2.74-5.45s3.58-2.29,6.39-2.31c.07,0,2.56,0,2.64,0h4.61l1.02,4.6Z"/>
      <path class="cls-3" d="M59.28,104.2h26.23c1.11,0,1.72,1.28,1.03,2.15l-10.45,12.93c-.7.86-.08,2.15,1.03,2.15l46.89-.09c1.17,0,1.76,1.4.95,2.24l-3.85,3.95c-.25.25-3.48.4-3.84.4h-54.23c-1.11,0-1.72-1.28-1.03-2.14l10.74-13.51c.69-.86.07-2.14-1.03-2.14h-11.1l-1.32-5.93Z"/>
    </g>
    <path class="cls-1" d="M93.02,103.75h0c2.43,0,4.29,2.17,3.91,4.58l-.77,4.88c-.18,1.25-.32,2.3-.43,3.13-.11.84-.16,1.38-.16,1.64,0,1.09.26,1.92.78,2.49.52.57,1.28.86,2.27.86,2.32,0,3.89-2.63,4.71-7.9.05-.29.08-.51.11-.66l.9-5.69c.3-1.92,1.96-3.34,3.91-3.34h.02c2.43,0,4.29,2.17,3.91,4.58l-.91,5.77-.07.48c-.8,4.9-2.04,8.18-3.73,9.82-1.07,1.03-2.38,1.8-3.93,2.32-1.55.52-3.29.78-5.24.78-3.36,0-6.02-.76-7.95-2.29s-2.91-3.59-2.91-6.2c0-.6.05-1.36.16-2.27.11-.91.32-2.32.63-4.22l.87-5.42c.31-1.92,1.96-3.33,3.91-3.33Z"/>
  </g>
  <path class="cls-3" d="M43,97.28c0,2.47-2,4.47-4.47,4.47-2.47,0-4.47-2-4.47-4.47,0-2.47,2-4.47,4.47-4.47s4.47,2,4.47,4.47Z"/>
  <path class="cls-4" d="M126.62,124.34c0,2.47-2,4.47-4.47,4.47-2.47,0-4.47-2-4.47-4.47s2-4.47,4.47-4.47,4.47,2,4.47,4.47Z"/>
</svg>