<?xml version="1.0" encoding="UTF-8"?>
<svg id="Logo" xmlns="http://www.w3.org/2000/svg" xmlns:xlink="http://www.w3.org/1999/xlink" viewBox="0 0 146 148.5">
  <defs>
    <style>
      .cls-1, .cls-2 {
        fill: #fff;
      }

      .cls-3 {
        fill: url(#Degraadado_Negro);
      }

      .cls-2, .cls-4 {
        stroke: #000;
        stroke-width: 4px;
      }

      .cls-4 {
        fill: none;
      }
    </style>
    <linearGradient id="Degraadado_Negro" data-name="Degraadado Negro" x1="32.12" y1="76.21" x2="141.36" y2="76.21" gradientUnits="userSpaceOnUse">
      <stop offset="0" stop-color="#504f51"/>
      <stop offset="1" stop-color="#000"/>
    </linearGradient>
  </defs>
  <ellipse class="cls-2" cx="75.72" cy="74.25" rx="47.97" ry="47.43"/>
  <g>
    <g>
      <path class="cls-1" d="M97.18,26.21c-6.75-2.35-7.54-11.14-8.65-17.45C87.67,3.82,83.43.03,78.19,0c-.14,0-.27,0-.41,0-.07,0,.27,0,.2,0-5.17.01-10.15,3.59-10.92,8.47-.93,5.88-4.82,11.21-10.88,13.91-6.51,2.9-13.84,2.02-19.3-1.69-4.32-2.94-10.16-2.67-13.92.9-.12.11-.24.23-.36.34-3.65,3.51-4.21,9.06-1.13,13.04,3.7,4.78,4.9,11.18,2.61,17.19-2.46,6.44-8.3,10.77-14.91,11.83C4,64.81.03,68.85,0,73.86c0,.13,0,.26,0,.39,0,.06,0,.13,0,.19.01,4.93,3.76,9.3,8.87,10.04,6.15.89,11.74,4.6,14.57,10.39,3.03,6.21,2.11,13.21-1.77,18.42-3.08,4.12-2.8,9.7.94,13.29.12.11.24.23.36.34,3.67,3.48,9.49,4.02,13.65,1.08,5.01-3.53,11.71-4.68,18.01-2.49,6.75,2.35,11.28,7.92,12.39,14.23.87,4.94,5.11,8.73,10.35,8.76.14,0,.27,0,.41,0,.07,0,.13,0,.2,0,5.17-.01,9.74-3.59,10.51-8.47.93-5.88,2.62-15.04,8.69-17.74l-60.68-12.79,5-67,55.68-16.29Z"/>
      <g>
        <path class="cls-3" d="M105.68,90.52h31.11c3.38,0,5.59,3.53,4.07,6.52l-2.68,5.29c-.77,1.53-2.35,2.49-4.07,2.49H58.36c-3.64,0-5.81-4.01-3.79-7.01l23.36-28.82c2.03-3.01-.18-7.04-3.84-7.01l-41.98.45,7.23-14.84,82.16.11c3.66,0,5.84,4.03,3.81,7.04l-23.42,28.76c-2.02,2.99.15,7.01,3.79,7.01Z"/>
        <path class="cls-1" d="M119.48,33c-.32,5.52-6.58,8.82-11.76,6.25-1.87-.93-3.76-1.74-5.69-2.44-5.86-2.12-12.02-3.17-18.49-3.17-12.51,0-22.68,3.79-30.52,11.37-7.84,7.58-11.76,17.4-11.76,29.46,0,11.67,3.82,21.29,11.45,28.87,7.63,7.58,17.26,11.37,28.88,11.37,6.77,0,13.22-1.13,19.35-3.4,1.95-.72,3.88-1.56,5.79-2.52,5.36-2.7,11.84.88,11.84,6.62v1.42c0,2.68-1.51,5.14-3.94,6.52-3.89,2.2-8.02,3.92-12.4,5.16-5.89,1.67-12.27,2.51-19.15,2.51-8.75,0-16.84-1.35-24.27-4.06-7.43-2.71-13.95-6.69-19.58-11.96-5.58-5.17-9.86-11.26-12.86-18.27-3-7.01-4.49-14.48-4.49-22.41s1.5-15.37,4.49-22.34c3-6.96,7.33-13.08,13.01-18.35,5.68-5.32,12.19-9.34,19.54-12.07,7.35-2.73,15.29-4.1,23.84-4.1,6.72,0,13.13.92,19.23,2.77,4.62,1.4,9.13,3.34,13.54,5.82,2.58,1.45,4.12,4.11,3.96,6.94h0ZM119.48,33c-.32,5.52-6.58,8.82-11.76,6.25-1.87-.93-3.76-1.74-5.69-2.44-5.86-2.12-12.02-3.17-18.49-3.17-12.51,0-22.68,3.79-30.52,11.37-7.84,7.58-11.76,17.4-11.76,29.46,0,11.67,3.82,21.29,11.45,28.87,7.63,7.58,17.26,11.37,28.88,11.37,6.77,0,13.22-1.13,19.35-3.4,1.95-.72,3.88-1.56,5.79-2.52,5.36-2.7,11.84.88,11.84,6.62v1.42c0,2.68-1.51,5.14-3.94,6.52-3.89,2.2-8.02,3.92-12.4,5.16-5.89,1.67-12.27,2.51-19.15,2.51-8.75,0-16.84-1.35-24.27-4.06-7.43-2.71-13.95-6.69-19.58-11.96-5.58-5.17-9.86-11.26-12.86-18.27-3-7.01-4.49-14.48-4.49-22.41s1.5-15.37,4.49-22.34c3-6.96,7.33-13.08,13.01-18.35,5.68-5.32,12.19-9.34,19.54-12.07,7.35-2.73,15.29-4.1,23.84-4.1,6.72,0,13.13.92,19.23,2.77,4.62,1.4,9.13,3.34,13.54,5.82,2.58,1.45,4.12,4.11,3.96,6.94h0Z"/>
      </g>
    </g>
    <g>
      <path class="cls-4" d="M77.78,0c.07,0,.13,0,.2,0,0,0,0,0,0,0,.07,0-.27,0-.2,0Z"/>
      <path class="cls-4" d="M136.8,90.52h-31.11c-3.64,0-5.81-4.01-3.79-7.01l23.42-28.76c2.03-3.01-.15-7.04-3.81-7.04l-70.94-.1c-3.69,4.28-6.29,9.18-7.78,14.71l31.32-.33c3.66-.04,5.87,3.99,3.84,7.01l-23.36,28.82c-2.02,2.99.15,7.01,3.79,7.01h75.76c1.72,0,3.3-.96,4.07-2.49l2.68-5.29c1.51-3-.69-6.52-4.07-6.52Z"/>
      <path class="cls-4" d="M53.02,45.01c7.84-7.58,18.02-11.37,30.52-11.37,6.46,0,12.62,1.06,18.49,3.17,1.93.7,3.83,1.51,5.69,2.44,5.18,2.57,11.44-.72,11.76-6.25.16-2.83-1.38-5.49-3.96-6.94-4.41-2.48-8.92-4.43-13.54-5.82-3.75-1.13-7.61-1.92-11.6-2.35-.92-3.01-1.36-6.31-1.85-9.13C87.67,3.82,83.43.03,78.19,0c-.07,0-.14,0-.21,0-5.17.02-10.14,3.59-10.91,8.47-.93,5.88-4.82,11.21-10.88,13.91-6.51,2.9-13.84,2.02-19.3-1.69-4.32-2.94-10.16-2.67-13.92.9-.12.11-.24.23-.36.34-3.65,3.51-4.21,9.06-1.13,13.04,3.7,4.78,4.9,11.18,2.61,17.19-2.46,6.44-8.3,10.77-14.91,11.83C4,64.81.03,68.85,0,73.86c0,.13,0,.26,0,.39,0,.06,0,.13,0,.19.01,4.93,3.76,9.3,8.87,10.04,6.15.89,11.74,4.6,14.57,10.39,3.03,6.21,2.11,13.21-1.77,18.42-3.08,4.12-2.8,9.7.94,13.29.12.11.24.23.36.34,3.67,3.48,9.49,4.02,13.65,1.08,5.01-3.53,11.71-4.68,18.01-2.49,6.75,2.35,11.28,7.92,12.39,14.23.87,4.94,5.11,8.73,10.35,8.76.14,0,.27,0,.41,0,.07,0,.13,0,.2,0,5.17-.01,9.74-3.59,10.51-8.47.43-2.74,1.04-6.18,2.17-9.36,4.04-.39,7.9-1.11,11.56-2.15,4.38-1.24,8.51-2.96,12.4-5.16,2.43-1.37,3.94-3.84,3.94-6.52v-1.42c0-5.74-6.47-9.32-11.84-6.62-1.9.96-3.83,1.8-5.79,2.52-6.12,2.26-12.57,3.4-19.35,3.4-11.62,0-21.25-3.79-28.88-11.37-7.63-7.58-11.45-17.2-11.45-28.87,0-4.34.52-8.38,1.53-12.14,1.49-5.53,4.09-10.44,7.78-14.71.77-.89,1.58-1.76,2.45-2.6Z"/>
    </g>
  </g>
  <ellipse class="cls-2" cx="133.84" cy="96.09" rx="10.16" ry="10.04"/>
</svg>