<?xml version="1.0" encoding="UTF-8"?>
<svg id="Logo" xmlns="http://www.w3.org/2000/svg" viewBox="0 0 122.09 130.11">
  <defs>
    <style>
      .cls-1 {
        fill: none;
        stroke: #000;
        stroke-width: 2px;
      }

      .cls-2 {
        stroke: #fff;
        stroke-width: 2.83px;
      }

      .cls-3 {
        fill: #233f92;
      }

      .cls-4 {
        fill: #2dff7a;
      }

      .cls-5 {
        fill: #57eeff;
      }
    </style>
  </defs>
  <g>
    <g>
      <path class="cls-3" d="M76.79,16.38c-4.22-1.47-4.71-6.96-5.4-10.91C70.84,2.39,68.19.02,64.91,0c-.09,0-.17,0-.26,0-.04,0,.17,0,.13,0-3.23,0-6.34,2.24-6.82,5.29-.58,3.67-3.01,7-6.8,8.69-4.07,1.81-8.65,1.26-12.06-1.06-2.7-1.84-6.35-1.67-8.7.56-.08.07-.15.14-.22.21-2.28,2.19-2.63,5.66-.71,8.15,2.31,2.99,3.07,6.99,1.63,10.74-1.54,4.03-5.19,6.73-9.32,7.39-3.23.52-5.71,3.05-5.73,6.17,0,.08,0,.16,0,.24,0,.04,0,.08,0,.12,0,3.08,2.35,5.81,5.54,6.27,3.85.55,7.34,2.87,9.11,6.49,1.9,3.88,1.32,8.26-1.11,11.51-1.92,2.58-1.75,6.06.59,8.31.07.07.15.14.22.21,2.3,2.18,5.93,2.51,8.53.67,3.13-2.21,7.32-2.93,11.26-1.56,4.22,1.47,7.05,4.95,7.74,8.89.54,3.08,3.19,5.46,6.47,5.47.09,0,.17,0,.26,0,.04,0,.08,0,.13,0,3.23,0,6.09-2.24,6.57-5.29.58-3.67,1.64-9.4,5.43-11.09V16.38Z"/>
      <ellipse class="cls-5" cx="63.37" cy="46.41" rx="29.98" ry="29.64"/>
      <g>
        <path class="cls-3" d="M82.1,56.57h19.45c2.12,0,3.49,2.2,2.55,4.08l-1.67,3.31c-.48.95-1.47,1.56-2.55,1.56h-47.35c-2.27,0-3.63-2.51-2.37-4.38l14.6-18.01c1.27-1.88-.11-4.4-2.4-4.38l-26.24.28,4.52-9.28,51.35.07c2.28,0,3.65,2.52,2.38,4.4l-14.64,17.98c-1.26,1.87.09,4.38,2.37,4.38Z"/>
        <path class="cls-3" d="M90.72,20.63c-.2,3.45-4.11,5.51-7.35,3.9-1.17-.58-2.35-1.09-3.56-1.52-3.66-1.32-7.52-1.98-11.55-1.98-7.82,0-14.18,2.37-19.08,7.11-4.9,4.74-7.35,10.88-7.35,18.41,0,7.29,2.39,13.31,7.16,18.04,4.77,4.74,10.79,7.11,18.05,7.11,4.23,0,8.26-.71,12.09-2.12,1.22-.45,2.43-.98,3.62-1.58,3.35-1.69,7.4.55,7.4,4.14v.89c0,1.67-.94,3.22-2.46,4.07-2.43,1.37-5.01,2.45-7.75,3.23-3.68,1.05-7.67,1.57-11.97,1.57-5.47,0-10.53-.85-15.17-2.54s-8.72-4.18-12.24-7.48c-3.49-3.23-6.16-7.04-8.04-11.42-1.87-4.38-2.81-9.05-2.81-14.01s.94-9.61,2.81-13.96c1.87-4.35,4.58-8.18,8.13-11.47,3.55-3.32,7.62-5.84,12.21-7.55s9.56-2.56,14.9-2.56c4.2,0,8.21.58,12.02,1.73,2.89.87,5.71,2.09,8.46,3.64,1.61.91,2.57,2.57,2.47,4.34h0ZM90.72,20.63c-.2,3.45-4.11,5.51-7.35,3.9-1.17-.58-2.35-1.09-3.56-1.52-3.66-1.32-7.52-1.98-11.55-1.98-7.82,0-14.18,2.37-19.08,7.11-4.9,4.74-7.35,10.88-7.35,18.41,0,7.29,2.39,13.31,7.16,18.04,4.77,4.74,10.79,7.11,18.05,7.11,4.23,0,8.26-.71,12.09-2.12,1.22-.45,2.43-.98,3.62-1.58,3.35-1.69,7.4.55,7.4,4.14v.89c0,1.67-.94,3.22-2.46,4.07-2.43,1.37-5.01,2.45-7.75,3.23-3.68,1.05-7.67,1.57-11.97,1.57-5.47,0-10.53-.85-15.17-2.54s-8.72-4.18-12.24-7.48c-3.49-3.23-6.16-7.04-8.04-11.42-1.87-4.38-2.81-9.05-2.81-14.01s.94-9.61,2.81-13.96c1.87-4.35,4.58-8.18,8.13-11.47,3.55-3.32,7.62-5.84,12.21-7.55s9.56-2.56,14.9-2.56c4.2,0,8.21.58,12.02,1.73,2.89.87,5.71,2.09,8.46,3.64,1.61.91,2.57,2.57,2.47,4.34h0Z"/>
      </g>
      <ellipse class="cls-4" cx="99.7" cy="60.06" rx="6.35" ry="6.28"/>
    </g>
    <g>
      <path class="cls-1" d="M64.66,0s.08,0,.12,0c0,0,0,0,0,0,.04,0-.17,0-.13,0Z"/>
      <path class="cls-1" d="M79.81,23.01c-3.66-1.32-7.52-1.98-11.55-1.98-7.82,0-14.18,2.37-19.08,7.11-.54.52-1.05,1.07-1.53,1.63l40.57.06c-1.28-1.87-2.77-3.58-4.43-5.11-.14-.06-.28-.11-.42-.18-1.17-.58-2.35-1.09-3.56-1.52Z"/>
      <path class="cls-1" d="M82.1,56.57h9.44c1.17-3.17,1.81-6.6,1.81-10.17,0-3.19-.52-6.26-1.46-9.14l-12.16,14.93c-1.26,1.87.09,4.38,2.37,4.38Z"/>
      <path class="cls-1" d="M52.52,65.51c-2.27,0-3.63-2.51-2.37-4.38l14.6-18.01c1.27-1.88-.11-4.4-2.4-4.38l-19.57.21c-.63,2.35-.96,4.88-.96,7.59,0,7.29,2.39,13.31,7.16,18.04,4.77,4.74,10.79,7.11,18.05,7.11,4.23,0,8.26-.71,12.09-2.12,1.22-.45,2.43-.98,3.62-1.58.56-.28,1.13-.44,1.71-.52.64-.63,1.25-1.28,1.83-1.96h-33.76Z"/>
      <path class="cls-1" d="M93.35,60.06c0-1.29.39-2.49,1.07-3.48h-12.32c-2.27,0-3.63-2.51-2.37-4.38l12.16-14.93,2.48-3.04c1.27-1.88-.1-4.4-2.38-4.4h-3.77s-40.57-.06-40.57-.06c.48-.56.99-1.1,1.53-1.63,4.9-4.74,11.26-7.11,19.08-7.11,4.04,0,7.89.66,11.55,1.98,1.21.44,2.39.94,3.56,1.52.14.07.28.12.42.18,3.15,1.25,6.74-.78,6.93-4.08.1-1.77-.86-3.43-2.47-4.34-2.75-1.55-5.57-2.77-8.46-3.64-2.34-.71-4.76-1.17-7.24-1.44-.58-1.89-.86-3.96-1.17-5.73C70.84,2.39,68.19.02,64.91,0c-.04,0-.09,0-.13,0-3.23,0-6.34,2.24-6.82,5.29-.58,3.67-3.01,7-6.8,8.69-4.07,1.81-8.65,1.26-12.06-1.06-2.7-1.84-6.35-1.67-8.7.56-.08.07-.15.14-.22.21-2.28,2.19-2.63,5.66-.71,8.15,2.31,2.99,3.07,6.99,1.63,10.74-1.54,4.03-5.19,6.73-9.32,7.39-3.23.52-5.71,3.05-5.73,6.17,0,.08,0,.16,0,.24,0,.04,0,.08,0,.12,0,3.08,2.35,5.81,5.54,6.27,3.85.55,7.34,2.87,9.11,6.49,1.9,3.88,1.32,8.26-1.11,11.51-1.92,2.58-1.75,6.06.59,8.31.07.07.15.14.22.21,2.3,2.18,5.93,2.51,8.53.67,3.13-2.21,7.32-2.93,11.26-1.56,4.22,1.47,7.05,4.95,7.74,8.89.54,3.08,3.19,5.46,6.47,5.47.09,0,.17,0,.26,0,.04,0,.08,0,.13,0,3.23,0,6.09-2.24,6.57-5.29.27-1.72.65-3.88,1.37-5.88,2.52-.25,4.93-.67,7.21-1.32,2.74-.78,5.32-1.85,7.75-3.23,1.52-.86,2.46-2.4,2.46-4.07v-.89c0-2.99-2.81-5.04-5.69-4.66-.57.08-1.15.24-1.71.52-1.19.6-2.4,1.12-3.62,1.58-3.83,1.42-7.86,2.12-12.09,2.12-7.26,0-13.28-2.37-18.05-7.11-4.77-4.74-7.16-10.75-7.16-18.04,0-2.71.32-5.24.96-7.59l19.57-.21c2.29-.02,3.67,2.5,2.4,4.38l-14.6,18.01c-1.26,1.87.09,4.38,2.37,4.38h44.05c-1.92-1.08-3.22-3.12-3.22-5.46Z"/>
      <path class="cls-1" d="M99.7,53.78c-2.2,0-4.14,1.11-5.28,2.79-.67,1-1.07,2.19-1.07,3.48,0,2.34,1.3,4.38,3.22,5.46.92.52,1.99.82,3.13.82,3.51,0,6.35-2.81,6.35-6.28s-2.84-6.28-6.35-6.28Z"/>
    </g>
  </g>
  <g>
    <path class="cls-2" d="M31.68,98h0c-.4,2.43-2.92,3.88-5.22,3.01l-.15-.06c-1.61-.61-3.28-.91-5.01-.91-2.95,0-5.39,1.03-7.3,3.09-1.91,2.06-2.87,4.69-2.87,7.88,0,2.89.8,5.12,2.41,6.7,1.61,1.58,3.88,2.37,6.81,2.37,1.27,0,2.57-.15,3.91-.46h0c1.98-.46,3.8,1.24,3.48,3.25l-.15.96c-.38,2.35-2.25,4.18-4.61,4.51h0c-1.47.2-3.05.3-4.76.3-5.08,0-9.14-1.57-12.2-4.72-3.06-3.15-4.59-7.32-4.59-12.53,0-2.51.39-4.91,1.18-7.19.79-2.28,1.94-4.35,3.47-6.22,1.78-2.17,4.01-3.84,6.68-4.99,2.67-1.15,5.66-1.73,8.97-1.73,1.88,0,3.71.21,5.47.63.22.05.44.11.66.17,2.61.7,4.27,3.26,3.84,5.92Z"/>
    <path class="cls-2" d="M31.83,122.77l2.51-15.97c.33-2.09,2.13-3.63,4.25-3.63h.02c2.65,0,4.66,2.36,4.25,4.98l-2.53,15.97c-.33,2.09-2.13,3.63-4.25,3.63h0c-2.64,0-4.66-2.36-4.25-4.97Z"/>
    <g>
      <path class="cls-2" d="M65.16,108.62h-9.92s-.4.28-.6.56-.41.61-.41.88c0,.75.84,1.44,2.53,2.09.75.28,1.33.51,1.75.71,2.35,1.02,4,2.08,4.94,3.18.94,1.09,1.41,2.46,1.41,4.1,0,2.58-1,4.65-2.99,6.22-2,1.56-4.66,2.35-7.98,2.35-1.88,0-3.68-.25-5.39-.74-.66-.19-1.32-.42-1.96-.69-1.7-.71-2.44-2.73-1.63-4.38h0c.79-1.61,2.73-2.27,4.32-1.49.48.24.93.43,1.35.59,1.12.42,2.17.63,3.16.63.86,0,1.55-.19,2.07-.57.52-.38.78-.87.78-1.47,0-.92-1.19-1.87-3.58-2.85-.71-.29-1.27-.52-1.65-.68-1.9-.84-3.24-1.76-4.04-2.75-.8-.99-1.19-2.22-1.19-3.7,0-2.35.98-4.31,2.94-5.86s3.85-2.46,6.88-2.48c.08,0,2.76,0,2.83,0h4.96l1.42,6.38Z"/>
      <path class="cls-2" d="M63.74,102.24h28.2c1.19,0,1.85,1.38,1.1,2.31l-11.23,13.9c-.75.93-.09,2.31,1.1,2.31l29.87-.09c1.26,0,1.89,1.51,1.02,2.41l-4.14,4.24c-.27.27-3.75.43-4.13.43h-37.77c-1.19,0-1.85-1.38-1.11-2.3l11.54-14.52c.74-.93.08-2.3-1.11-2.3h-11.94l-1.42-6.38Z"/>
    </g>
    <path class="cls-2" d="M100.02,101.76h0c2.62,0,4.61,2.34,4.21,4.92l-.83,5.25c-.19,1.35-.35,2.47-.46,3.37-.11.9-.17,1.49-.17,1.76,0,1.17.28,2.06.84,2.68.56.62,1.37.92,2.45.92,2.5,0,4.18-2.83,5.06-8.49.05-.31.09-.54.12-.71l.97-6.11c.33-2.07,2.11-3.59,4.21-3.59h.02c2.62,0,4.61,2.34,4.21,4.92l-.98,6.2-.07.51c-.86,5.27-2.2,8.79-4.01,10.56-1.15,1.1-2.56,1.93-4.22,2.49-1.66.56-3.54.84-5.63.84-3.62,0-6.47-.82-8.55-2.46s-3.13-3.86-3.13-6.67c0-.65.06-1.46.17-2.45.11-.98.34-2.49.68-4.54l.93-5.83c.33-2.07,2.11-3.58,4.2-3.58Z"/>
  </g>
  <path class="cls-2" d="M46.23,94.81c0,2.65-2.15,4.81-4.81,4.81-2.65,0-4.81-2.15-4.81-4.81,0-2.65,2.15-4.81,4.81-4.81s4.81,2.15,4.81,4.81Z"/>
</svg>