<?xml version="1.0" encoding="UTF-8"?>
<svg id="Capa_2" data-name="Capa 2" xmlns="http://www.w3.org/2000/svg" viewBox="0 0 146.5 149.5">
  <defs>
    <style>
      .cls-1, .cls-2, .cls-3, .cls-4 {
        stroke-width: 4px;
      }

      .cls-1, .cls-2, .cls-4 {
        stroke: #f7f7f8;
      }

      .cls-2 {
        fill: #fff;
      }

      .cls-3 {
        fill: #f7f7f8;
        stroke: #000;
      }

      .cls-4 {
        fill: none;
      }
    </style>
  </defs>
  <ellipse class="cls-2" cx="76.22" cy="74.75" rx="47.97" ry="47.43"/>
  <path class="cls-3" d="M106.18,91.02h31.11c3.38,0,5.59,3.53,4.07,6.52l-2.68,5.29c-.77,1.53-2.35,2.49-4.07,2.49H58.86c-3.64,0-5.81-4.01-3.79-7.01l23.36-28.82c2.03-3.01-.18-7.04-3.84-7.01l-41.98.45,7.23-14.84,82.16.11c3.66,0,5.84,4.03,3.81,7.04l-23.42,28.76c-2.02,2.99.15,7.01,3.79,7.01Z"/>
  <ellipse class="cls-1" cx="134.34" cy="96.59" rx="10.16" ry="10.04"/>
  <g>
    <g>
      <path d="M78.28.5c.07,0,.13,0,.2,0,0,0,0,0,0,0,.07,0-.27,0-.2,0Z"/>
      <path d="M107.22,109.29c-1.9.96-3.83,1.8-5.79,2.52-6.12,2.26-12.57,3.4-19.35,3.4-2.15,0-4.22-.13-6.23-.39l-16.66-6.08c-2.12-1.4-4.11-3.03-5.99-4.9-7.63-7.58-11.45-17.2-11.45-28.87,0-12.06,3.92-21.88,11.76-29.46,7.84-7.58,18.02-11.37,30.52-11.37,6.46,0,12.62,1.06,18.49,3.17,1.93.7,3.83,1.51,5.69,2.44,5.18,2.57,11.44-.72,11.76-6.25.16-2.83-1.38-5.49-3.96-6.94-4.41-2.48-8.92-4.43-13.54-5.82-3.75-1.13-7.61-1.92-11.6-2.35-.92-3.01-1.36-6.31-1.85-9.13-.87-4.94-5.11-8.73-10.35-8.76-.07,0-.14,0-.21,0-5.17.02-10.14,3.59-10.91,8.47-.93,5.88-4.82,11.21-10.88,13.91-6.51,2.9-13.84,2.02-19.3-1.69-4.32-2.94-10.16-2.67-13.92.9-.12.11-.24.23-.36.34-3.65,3.51-4.21,9.06-1.13,13.04,3.7,4.78,4.9,11.18,2.61,17.19-2.46,6.44-8.3,10.77-14.91,11.83-5.17.83-9.14,4.88-9.17,9.88,0,.13,0,.26,0,.39,0,.06,0,.13,0,.19.01,4.93,3.76,9.3,8.87,10.04,6.15.89,11.74,4.6,14.57,10.39,3.03,6.21,2.11,13.21-1.77,18.42-3.08,4.12-2.8,9.7.94,13.29.12.11.24.23.36.34,3.67,3.48,9.49,4.02,13.65,1.08,5.01-3.53,11.71-4.68,18.01-2.49,6.75,2.35,11.28,7.92,12.39,14.23.87,4.94,5.11,8.73,10.35,8.76.14,0,.27,0,.41,0,.07,0,.13,0,.2,0,5.17-.01,9.74-3.59,10.51-8.47.43-2.74,1.04-6.18,2.17-9.36,4.04-.39,7.9-1.11,11.56-2.15,4.38-1.24,8.51-2.96,12.4-5.16,2.43-1.37,3.94-3.84,3.94-6.52v-1.42c0-5.74-6.47-9.32-11.84-6.62Z"/>
    </g>
    <g>
      <path class="cls-4" d="M78.28.5c.07,0,.13,0,.2,0,0,0,0,0,0,0,.07,0-.27,0-.2,0Z"/>
      <path class="cls-4" d="M107.22,109.29c-1.9.96-3.83,1.8-5.79,2.52-6.12,2.26-12.57,3.4-19.35,3.4-2.15,0-4.22-.13-6.23-.39l-16.66-6.08c-2.12-1.4-4.11-3.03-5.99-4.9-7.63-7.58-11.45-17.2-11.45-28.87,0-12.06,3.92-21.88,11.76-29.46,7.84-7.58,18.02-11.37,30.52-11.37,6.46,0,12.62,1.06,18.49,3.17,1.93.7,3.83,1.51,5.69,2.44,5.18,2.57,11.44-.72,11.76-6.25.16-2.83-1.38-5.49-3.96-6.94-4.41-2.48-8.92-4.43-13.54-5.82-3.75-1.13-7.61-1.92-11.6-2.35-.92-3.01-1.36-6.31-1.85-9.13-.87-4.94-5.11-8.73-10.35-8.76-.07,0-.14,0-.21,0-5.17.02-10.14,3.59-10.91,8.47-.93,5.88-4.82,11.21-10.88,13.91-6.51,2.9-13.84,2.02-19.3-1.69-4.32-2.94-10.16-2.67-13.92.9-.12.11-.24.23-.36.34-3.65,3.51-4.21,9.06-1.13,13.04,3.7,4.78,4.9,11.18,2.61,17.19-2.46,6.44-8.3,10.77-14.91,11.83-5.17.83-9.14,4.88-9.17,9.88,0,.13,0,.26,0,.39,0,.06,0,.13,0,.19.01,4.93,3.76,9.3,8.87,10.04,6.15.89,11.74,4.6,14.57,10.39,3.03,6.21,2.11,13.21-1.77,18.42-3.08,4.12-2.8,9.7.94,13.29.12.11.24.23.36.34,3.67,3.48,9.49,4.02,13.65,1.08,5.01-3.53,11.71-4.68,18.01-2.49,6.75,2.35,11.28,7.92,12.39,14.23.87,4.94,5.11,8.73,10.35,8.76.14,0,.27,0,.41,0,.07,0,.13,0,.2,0,5.17-.01,9.74-3.59,10.51-8.47.43-2.74,1.04-6.18,2.17-9.36,4.04-.39,7.9-1.11,11.56-2.15,4.38-1.24,8.51-2.96,12.4-5.16,2.43-1.37,3.94-3.84,3.94-6.52v-1.42c0-5.74-6.47-9.32-11.84-6.62Z"/>
    </g>
  </g>
</svg>