<?xml version="1.0" encoding="UTF-8"?>
<svg id="Capa_1" data-name="Capa 1" xmlns="http://www.w3.org/2000/svg" xmlns:xlink="http://www.w3.org/1999/xlink" viewBox="0 0 356.49 107.65">
  <defs>
    <style>
      .cls-1 {
        fill: url(#Degradado_White-2);
        stroke: url(#Degraadado_Negro-2);
      }

      .cls-1, .cls-2, .cls-3, .cls-4, .cls-5, .cls-6, .cls-7 {
        stroke-width: 7.34px;
      }

      .cls-2 {
        fill: url(#Degraadado_Negro-6);
        stroke: url(#Degradado_White-5);
      }

      .cls-3 {
        fill: url(#Degradado_White-6);
        stroke: url(#Degraadado_Negro-7);
      }

      .cls-4 {
        fill: url(#Degradado_White-3);
        stroke: url(#Degraadado_Negro-3);
      }

      .cls-5 {
        fill: url(#Degradado_White);
        stroke: url(#Degraadado_Negro);
      }

      .cls-6 {
        fill: url(#Degradado_White-4);
        stroke: url(#Degraadado_Negro-5);
      }

      .cls-7 {
        fill: url(#Degraadado_Negro-4);
        stroke: #fff;
      }
    </style>
    <linearGradient id="Degradado_White" data-name="Degradado White" x1="3.67" y1="55.4" x2="82.28" y2="55.4" gradientUnits="userSpaceOnUse">
      <stop offset="0" stop-color="#fff"/>
      <stop offset="1" stop-color="#d0d0d0"/>
    </linearGradient>
    <linearGradient id="Degraadado_Negro" data-name="Degraadado Negro" x1="0" y1="55.4" x2="85.95" y2="55.4" gradientUnits="userSpaceOnUse">
      <stop offset="0" stop-color="#504f51"/>
      <stop offset="1" stop-color="#000"/>
    </linearGradient>
    <linearGradient id="Degradado_White-2" data-name="Degradado White" x1="82.35" y1="69.65" x2="111.21" y2="69.65" xlink:href="#Degradado_White"/>
    <linearGradient id="Degraadado_Negro-2" data-name="Degraadado Negro" x1="78.68" y1="69.65" x2="114.89" y2="69.65" xlink:href="#Degraadado_Negro"/>
    <linearGradient id="Degradado_White-3" data-name="Degradado White" x1="115.52" y1="69.67" x2="168.1" y2="69.67" xlink:href="#Degradado_White"/>
    <linearGradient id="Degraadado_Negro-3" data-name="Degraadado Negro" x1="111.85" y1="69.67" x2="171.77" y2="69.67" xlink:href="#Degraadado_Negro"/>
    <linearGradient id="Degraadado_Negro-4" data-name="Degraadado Negro" x1="165.18" y1="68.45" x2="349.2" y2="68.45" xlink:href="#Degraadado_Negro"/>
    <linearGradient id="Degradado_White-4" data-name="Degradado White" x1="243.67" y1="67.21" x2="312.73" y2="67.21" xlink:href="#Degradado_White"/>
    <linearGradient id="Degraadado_Negro-5" data-name="Degraadado Negro" x1="240" y1="67.21" x2="316.4" y2="67.21" xlink:href="#Degraadado_Negro"/>
    <linearGradient id="Degraadado_Negro-6" data-name="Degraadado Negro" x1="94.89" y1="16.13" x2="119.81" y2="16.13" xlink:href="#Degraadado_Negro"/>
    <linearGradient id="Degradado_White-5" data-name="Degradado White" x1="91.22" y1="16.13" x2="123.48" y2="16.13" xlink:href="#Degradado_White"/>
    <linearGradient id="Degradado_White-6" data-name="Degradado White" x1="327.9" y1="91.52" x2="352.81" y2="91.52" xlink:href="#Degradado_White"/>
    <linearGradient id="Degraadado_Negro-7" data-name="Degraadado Negro" x1="324.23" y1="91.52" x2="356.49" y2="91.52" xlink:href="#Degraadado_Negro"/>
  </defs>
  <g>
    <path class="cls-5" d="M82.1,24.4h0c-1.03,6.29-7.57,10.06-13.53,7.79l-.4-.15c-4.16-1.58-8.49-2.36-12.99-2.36-7.65,0-13.96,2.67-18.92,8.01-4.96,5.34-7.44,12.15-7.44,20.43,0,7.48,2.08,13.27,6.24,17.37,4.16,4.1,10.05,6.15,17.65,6.15,3.28,0,6.65-.4,10.12-1.2h0c5.14-1.19,9.85,3.21,9.01,8.41l-.4,2.49c-.98,6.1-5.83,10.84-11.95,11.7h0c-3.81.53-7.91.79-12.33.79-13.16,0-23.7-4.08-31.62-12.23-7.92-8.16-11.89-18.98-11.89-32.47,0-6.51,1.02-12.72,3.06-18.63,2.04-5.91,5.03-11.28,8.99-16.11,4.62-5.63,10.39-9.94,17.31-12.93,6.91-2.98,14.66-4.48,23.24-4.48,4.88,0,9.6.55,14.19,1.64.57.14,1.14.28,1.71.43,6.76,1.82,11.08,8.44,9.95,15.35Z"/>
    <path class="cls-1" d="M82.49,88.6l6.51-41.38c.85-5.42,5.53-9.42,11.02-9.42h.04c6.86,0,12.09,6.13,11.02,12.9l-6.55,41.38c-.86,5.42-5.53,9.41-11.02,9.41h0c-6.85,0-12.08-6.12-11.02-12.89Z"/>
    <g>
      <path class="cls-4" d="M168.02,48.22c.42,1.9-1.02,3.71-2.97,3.71h-21.9s-1.04.73-1.56,1.44-1.05,1.59-1.05,2.29c0,1.93,2.19,3.74,6.56,5.42,1.93.72,3.45,1.32,4.54,1.83,6.09,2.65,10.36,5.39,12.8,8.23,2.44,2.84,3.66,6.38,3.66,10.62,0,6.68-2.59,12.05-7.76,16.11-5.17,4.06-12.06,6.08-20.68,6.08-4.88,0-9.53-.64-13.97-1.92-1.72-.5-3.41-1.09-5.08-1.78-4.42-1.83-6.33-7.06-4.22-11.35h0c2.05-4.17,7.06-5.89,11.21-3.87,1.26.61,2.42,1.12,3.49,1.52,2.9,1.09,5.63,1.64,8.2,1.64,2.23,0,4.01-.49,5.36-1.48,1.34-.99,2.02-2.26,2.02-3.81,0-2.4-3.09-4.85-9.27-7.38-1.85-.76-3.28-1.34-4.29-1.77-4.92-2.19-8.41-4.56-10.47-7.12-2.06-2.56-3.09-5.76-3.09-9.58,0-6.1,2.54-11.16,7.63-15.2,5.02-3.98,9.97-6.39,17.82-6.44.2,0,7.14-.01,7.34,0h12.85l2.85,12.82Z"/>
      <path class="cls-7" d="M165.18,35.4h73.08c3.09,0,4.8,3.58,2.86,5.98l-29.11,36.03c-1.94,2.4-.23,5.98,2.86,5.98l130.66-.25c3.25,0,4.91,3.91,2.63,6.24l-10.74,11c-.69.71-9.71,1.11-10.7,1.11h-151.11c-3.08,0-4.79-3.57-2.86-5.97l29.92-37.64c1.91-2.41.2-5.96-2.87-5.96h-30.94l-3.67-16.52Z"/>
    </g>
    <path class="cls-6" d="M259.19,34.13h0c6.78,0,11.96,6.06,10.9,12.76l-2.15,13.6c-.5,3.49-.9,6.4-1.2,8.73-.29,2.33-.44,3.86-.44,4.57,0,3.03.73,5.34,2.18,6.94,1.45,1.6,3.56,2.4,6.34,2.4,6.47,0,10.85-7.34,13.11-22.01.13-.8.23-1.41.32-1.83l2.5-15.85c.85-5.36,5.47-9.31,10.9-9.31h.05c6.78,0,11.96,6.06,10.9,12.75l-2.53,16.06-.19,1.32c-2.23,13.66-5.7,22.78-10.4,27.36-2.98,2.86-6.63,5.01-10.94,6.46-4.31,1.45-9.17,2.18-14.6,2.18-9.37,0-16.76-2.12-22.16-6.37s-8.1-10-8.1-17.28c0-1.68.15-3.79.44-6.34.29-2.54.88-6.46,1.77-11.76l2.42-15.11c.86-5.35,5.48-9.29,10.9-9.29Z"/>
  </g>
  <path class="cls-2" d="M119.81,16.13c0,6.88-5.58,12.46-12.46,12.46-6.88,0-12.46-5.58-12.46-12.46,0-6.88,5.58-12.46,12.46-12.46s12.46,5.58,12.46,12.46Z"/>
  <path class="cls-3" d="M352.81,91.52c0,6.88-5.58,12.46-12.46,12.46-6.88,0-12.46-5.58-12.46-12.46s5.58-12.46,12.46-12.46,12.46,5.58,12.46,12.46Z"/>
</svg>