<?xml version="1.0" encoding="UTF-8"?>
<svg id="Capa_1" data-name="Capa 1" xmlns="http://www.w3.org/2000/svg" viewBox="0 0 334.16 113.66">
  <defs>
    <style>
      .cls-1 {
        fill: #fff;
        stroke: #000;
        stroke-width: 7.75px;
      }
    </style>
  </defs>
  <g>
    <path class="cls-1" d="M86.71,25.77h0c-1.09,6.64-7.99,10.62-14.28,8.23l-.42-.16c-4.4-1.66-8.97-2.5-13.72-2.5-8.08,0-14.74,2.82-19.98,8.46-5.24,5.64-7.86,12.83-7.86,21.58,0,7.9,2.2,14.02,6.59,18.35,4.39,4.33,10.61,6.49,18.65,6.49,3.46,0,7.03-.42,10.69-1.26h0c5.43-1.26,10.4,3.39,9.51,8.89l-.42,2.63c-1.04,6.44-6.16,11.45-12.62,12.35h0c-4.02.55-8.36.83-13.02.83-13.9,0-25.03-4.31-33.4-12.92-8.37-8.61-12.55-20.04-12.55-34.3,0-6.88,1.08-13.44,3.23-19.68,2.15-6.24,5.32-11.91,9.49-17.01,4.88-5.95,10.98-10.5,18.28-13.65,7.3-3.15,15.48-4.73,24.54-4.73,5.15,0,10.14.58,14.98,1.73.6.14,1.2.3,1.8.46,7.14,1.93,11.7,8.91,10.51,16.21Z"/>
    <path class="cls-1" d="M87.11,93.57l6.88-43.7c.9-5.73,5.84-9.95,11.64-9.95h.04c7.24,0,12.77,6.47,11.63,13.62l-6.92,43.7c-.91,5.72-5.84,9.94-11.63,9.94h0c-7.24,0-12.76-6.46-11.64-13.61Z"/>
    <g>
      <path class="cls-1" d="M178.32,54.84h-27.14s-1.09.77-1.65,1.52-1.11,1.68-1.11,2.42c0,2.04,2.31,3.95,6.93,5.73,2.04.76,3.64,1.4,4.79,1.93,6.44,2.8,10.94,5.69,13.52,8.69,2.57,3,3.86,6.74,3.86,11.22,0,7.06-2.73,12.73-8.19,17.02-5.46,4.28-12.74,6.43-21.84,6.43-5.15,0-10.07-.68-14.75-2.03-1.81-.52-3.6-1.15-5.37-1.88-4.67-1.93-6.68-7.46-4.45-11.99h0c2.17-4.41,7.46-6.22,11.83-4.08,1.33.65,2.56,1.18,3.68,1.61,3.06,1.15,5.95,1.73,8.66,1.73,2.35,0,4.24-.52,5.66-1.57,1.42-1.04,2.13-2.39,2.13-4.03,0-2.53-3.26-5.13-9.79-7.79-1.95-.8-3.46-1.42-4.53-1.86-5.19-2.31-8.88-4.82-11.05-7.52-2.18-2.71-3.26-6.08-3.26-10.12,0-6.44,2.69-11.79,8.06-16.05s10.53-6.75,18.82-6.8c.21,0,7.55-.01,7.75,0h13.57l3.88,17.45Z"/>
      <path class="cls-1" d="M174.44,37.39h77.18c3.26,0,5.06,3.78,3.02,6.31l-30.74,38.06c-2.05,2.54-.24,6.31,3.02,6.31l81.76-.26c3.44,0,5.18,4.13,2.78,6.59l-11.34,11.62c-.73.75-10.25,1.17-11.3,1.17h-103.36c-3.25,0-5.06-3.77-3.02-6.3l31.59-39.75c2.02-2.54.21-6.29-3.04-6.29h-32.68l-3.88-17.45Z"/>
    </g>
    <path class="cls-1" d="M273.74,36.05h0c7.16,0,12.63,6.4,11.51,13.47l-2.27,14.36c-.53,3.69-.96,6.76-1.26,9.22-.31,2.46-.47,4.07-.47,4.83,0,3.2.77,5.64,2.3,7.33,1.53,1.69,3.76,2.53,6.69,2.53,6.84,0,11.45-7.75,13.85-23.24.13-.84.24-1.49.33-1.93l2.64-16.73c.89-5.66,5.78-9.84,11.51-9.84h.05c7.16,0,12.63,6.4,11.51,13.47l-2.67,16.97-.2,1.4c-2.35,14.43-6.02,24.06-10.99,28.9-3.15,3.02-7,5.29-11.55,6.83-4.55,1.53-9.69,2.3-15.42,2.3-9.9,0-17.7-2.24-23.41-6.73s-8.56-10.56-8.56-18.25c0-1.77.16-4.01.47-6.69.31-2.68.93-6.83,1.86-12.42l2.56-15.96c.91-5.65,5.78-9.81,11.51-9.81Z"/>
  </g>
  <path class="cls-1" d="M126.53,17.03c0,7.27-5.89,13.16-13.16,13.16-7.27,0-13.16-5.89-13.16-13.16,0-7.27,5.89-13.16,13.16-13.16s13.16,5.89,13.16,13.16Z"/>
</svg>