<?xml version="1.0" encoding="UTF-8"?>
<svg id="Capa_1" data-name="Capa 1" xmlns="http://www.w3.org/2000/svg" xmlns:xlink="http://www.w3.org/1999/xlink" viewBox="0 0 352.52 183.57">
  <defs>
    <style>
      .cls-1 {
        fill: #fff;
      }

      .cls-1, .cls-2, .cls-3, .cls-4, .cls-5 {
        stroke: #000;
      }

      .cls-1, .cls-2, .cls-4, .cls-5 {
        stroke-width: 5.93px;
      }

      .cls-2 {
        fill: url(#Degradado_Color_5);
      }

      .cls-3 {
        fill: none;
        stroke-width: 8.98px;
      }

      .cls-6 {
        fill: url(#Degradado_Color_3);
      }

      .cls-4 {
        fill: url(#Degradado_Color_3-3);
      }

      .cls-5 {
        fill: url(#Degradado_sin_nombre_14);
      }

      .cls-7 {
        fill: url(#Degradado_Color_3-2);
      }
    </style>
    <linearGradient id="Degradado_Color_3" data-name="Degradado Color 3" x1="96.13" y1="0" x2="96.41" y2="0" gradientUnits="userSpaceOnUse">
      <stop offset=".36" stop-color="#233f92"/>
      <stop offset="1" stop-color="#0eb9dc"/>
    </linearGradient>
    <linearGradient id="Degradado_Color_3-2" data-name="Degradado Color 3" x1="0" y1="91.79" x2="147.71" y2="91.79" xlink:href="#Degradado_Color_3"/>
    <linearGradient id="Degradado_sin_nombre_14" data-name="Degradado sin nombre 14" x1="198.15" y1="103.27" x2="346.64" y2="103.27" gradientUnits="userSpaceOnUse">
      <stop offset=".16" stop-color="#233f92"/>
      <stop offset="1" stop-color="#0eb9dc"/>
    </linearGradient>
    <linearGradient id="Degradado_Color_3-3" data-name="Degradado Color 3" x1="141.43" y1="61.05" x2="161.54" y2="61.05" xlink:href="#Degradado_Color_3"/>
    <linearGradient id="Degradado_Color_5" data-name="Degradado Color 5" x1="329.45" y1="121.89" x2="349.55" y2="121.89" gradientUnits="userSpaceOnUse">
      <stop offset="0" stop-color="#00ff7b"/>
      <stop offset="1" stop-color="lime"/>
    </linearGradient>
  </defs>
  <g>
    <g>
      <path class="cls-6" d="M96.15,0c.08,0,.16,0,.24,0,0,0,0,0,0,0,.08,0-.33,0-.25,0Z"/>
      <path class="cls-7" d="M131.92,134.49c-2.35,1.19-4.74,2.22-7.16,3.12-7.57,2.8-15.54,4.2-23.91,4.2-14.36,0-26.27-4.68-35.7-14.06-9.44-9.37-14.16-21.27-14.16-35.69,0-14.91,4.85-27.05,14.54-36.42,9.69-9.37,22.27-14.06,37.73-14.06,7.99,0,15.6,1.31,22.85,3.92,2.39.86,4.73,1.86,7.04,3.01,6.41,3.18,14.15-.9,14.54-7.72.2-3.5-1.71-6.78-4.89-8.58-5.45-3.07-11.03-5.47-16.73-7.2-4.63-1.4-9.41-2.37-14.34-2.91-1.14-3.72-1.68-7.8-2.29-11.28C108.37,4.72,103.13.03,96.65,0c-.09,0-.18,0-.26,0-6.39.02-12.53,4.44-13.49,10.47-1.15,7.26-5.96,13.85-13.45,17.19-8.05,3.58-17.11,2.49-23.85-2.09-5.34-3.63-12.56-3.3-17.21,1.11-.15.14-.3.28-.44.42-4.51,4.34-5.2,11.2-1.4,16.11,4.57,5.91,6.06,13.82,3.23,21.25-3.04,7.97-10.26,13.32-18.43,14.62C4.95,80.11.04,85.12,0,91.3c0,.16,0,.32,0,.48,0,.08,0,.16,0,.24.02,6.1,4.65,11.49,10.96,12.41,7.61,1.1,14.51,5.69,18.01,12.84,3.75,7.68,2.61,16.33-2.19,22.77-3.8,5.1-3.46,11.99,1.16,16.43.15.14.3.28.44.42,4.54,4.31,11.73,4.96,16.88,1.33,6.19-4.37,14.48-5.79,22.26-3.08,8.35,2.9,13.95,9.79,15.32,17.59,1.07,6.1,6.31,10.79,12.79,10.82.17,0,.34,0,.51,0,.08,0,.17,0,.25,0,6.39-.02,12.04-4.44,12.99-10.47.54-3.38,1.29-7.65,2.68-11.57,5-.49,9.76-1.37,14.29-2.66,5.41-1.54,10.52-3.66,15.33-6.38,3.01-1.7,4.87-4.75,4.87-8.06v-1.76c0-7.09-8-11.53-14.63-8.19Z"/>
    </g>
    <g>
      <path class="cls-3" d="M96.15,0c.08,0,.16,0,.24,0,0,0,0,0,0,0,.08,0-.33,0-.25,0Z"/>
      <path class="cls-3" d="M131.92,134.49c-2.35,1.19-4.74,2.22-7.16,3.12-7.57,2.8-15.54,4.2-23.91,4.2-14.36,0-26.27-4.68-35.7-14.06-9.44-9.37-14.16-21.27-14.16-35.69,0-14.91,4.85-27.05,14.54-36.42,9.69-9.37,22.27-14.06,37.73-14.06,7.99,0,15.6,1.31,22.85,3.92,2.39.86,4.73,1.86,7.04,3.01,6.41,3.18,14.15-.9,14.54-7.72.2-3.5-1.71-6.78-4.89-8.58-5.45-3.07-11.03-5.47-16.73-7.2-4.63-1.4-9.41-2.37-14.34-2.91-1.14-3.72-1.68-7.8-2.29-11.28C108.37,4.72,103.13.03,96.65,0c-.09,0-.18,0-.26,0-6.39.02-12.53,4.44-13.49,10.47-1.15,7.26-5.96,13.85-13.45,17.19-8.05,3.58-17.11,2.49-23.85-2.09-5.34-3.63-12.56-3.3-17.21,1.11-.15.14-.3.28-.44.42-4.51,4.34-5.2,11.2-1.4,16.11,4.57,5.91,6.06,13.82,3.23,21.25-3.04,7.97-10.26,13.32-18.43,14.62C4.95,80.11.04,85.12,0,91.3c0,.16,0,.32,0,.48,0,.08,0,.16,0,.24.02,6.1,4.65,11.49,10.96,12.41,7.61,1.1,14.51,5.69,18.01,12.84,3.75,7.68,2.61,16.33-2.19,22.77-3.8,5.1-3.46,11.99,1.16,16.43.15.14.3.28.44.42,4.54,4.31,11.73,4.96,16.88,1.33,6.19-4.37,14.48-5.79,22.26-3.08,8.35,2.9,13.95,9.79,15.32,17.59,1.07,6.1,6.31,10.79,12.79,10.82.17,0,.34,0,.51,0,.08,0,.17,0,.25,0,6.39-.02,12.04-4.44,12.99-10.47.54-3.38,1.29-7.65,2.68-11.57,5-.49,9.76-1.37,14.29-2.66,5.41-1.54,10.52-3.66,15.33-6.38,3.01-1.7,4.87-4.75,4.87-8.06v-1.76c0-7.09-8-11.53-14.63-8.19Z"/>
    </g>
  </g>
  <g>
    <path class="cls-1" d="M131.11,67.72h0c-.83,5.08-6.11,8.12-10.91,6.29l-.32-.12c-3.36-1.27-6.85-1.91-10.48-1.91-6.17,0-11.26,2.15-15.26,6.46-4,4.31-6,9.8-6,16.48,0,6.04,1.68,10.71,5.04,14.02,3.36,3.31,8.11,4.96,14.25,4.96,2.65,0,5.37-.32,8.17-.97h0c4.15-.96,7.94,2.59,7.27,6.79l-.32,2.01c-.79,4.92-4.7,8.75-9.64,9.44h0c-3.07.42-6.39.64-9.95.64-10.62,0-19.12-3.29-25.52-9.87-6.39-6.58-9.59-15.31-9.59-26.2,0-5.26.82-10.27,2.47-15.03,1.64-4.76,4.06-9.1,7.25-13,3.73-4.55,8.39-8.02,13.97-10.43,5.58-2.41,11.83-3.61,18.75-3.61,3.93,0,7.75.44,11.45,1.32.46.11.92.23,1.38.35,5.46,1.47,8.94,6.81,8.03,12.39Z"/>
    <path class="cls-1" d="M131.42,119.53l5.26-33.39c.69-4.38,4.46-7.6,8.89-7.6h.03c5.53,0,9.75,4.94,8.89,10.41l-5.29,33.39c-.69,4.37-4.46,7.59-8.89,7.59h0c-5.53,0-9.75-4.94-8.89-10.4Z"/>
    <g>
      <path class="cls-1" d="M200.44,86.94c.34,1.53-.83,2.99-2.4,2.99h-17.67s-.84.59-1.26,1.16-.85,1.28-.85,1.85c0,1.56,1.76,3.02,5.29,4.38,1.56.58,2.78,1.07,3.66,1.48,4.92,2.14,8.36,4.35,10.33,6.64,1.97,2.29,2.95,5.15,2.95,8.57,0,5.39-2.09,9.73-6.26,13-4.17,3.27-9.74,4.91-16.69,4.91-3.93,0-7.69-.52-11.27-1.55-1.38-.4-2.75-.88-4.1-1.44-3.56-1.48-5.11-5.7-3.4-9.16h0c1.66-3.37,5.7-4.75,9.04-3.12,1.01.5,1.95.9,2.81,1.23,2.34.88,4.54,1.32,6.61,1.32,1.8,0,3.24-.4,4.33-1.2,1.08-.8,1.63-1.82,1.63-3.08,0-1.93-2.49-3.92-7.48-5.95-1.49-.61-2.65-1.08-3.46-1.42-3.97-1.76-6.78-3.68-8.45-5.75-1.66-2.07-2.49-4.65-2.49-7.73,0-4.92,2.05-9.01,6.16-12.26s8.04-5.15,14.38-5.19c.16,0,5.76,0,5.93,0h10.37l2.3,10.34Z"/>
      <path class="cls-5" d="M198.15,76.6h58.97c2.49,0,3.87,2.89,2.3,4.82l-23.49,29.08c-1.56,1.94-.19,4.82,2.3,4.82l105.43-.2c2.62,0,3.96,3.15,2.13,5.03l-8.66,8.87c-.56.57-7.83.89-8.63.89h-121.93c-2.49,0-3.87-2.88-2.31-4.82l24.14-30.37c1.54-1.94.16-4.81-2.32-4.81h-24.97l-2.96-13.33Z"/>
    </g>
    <path class="cls-1" d="M274.01,75.58h0c5.47,0,9.65,4.89,8.79,10.29l-1.73,10.97c-.41,2.82-.73,5.16-.97,7.05-.24,1.88-.36,3.11-.36,3.69,0,2.44.59,4.31,1.76,5.6,1.17,1.29,2.88,1.93,5.11,1.93,5.22,0,8.75-5.92,10.58-17.76.1-.64.19-1.14.25-1.48l2.02-12.79c.68-4.33,4.41-7.52,8.79-7.52h.04c5.47,0,9.65,4.89,8.8,10.29l-2.04,12.96-.15,1.07c-1.8,11.02-4.6,18.38-8.4,22.08-2.41,2.31-5.35,4.04-8.83,5.21-3.48,1.17-7.4,1.76-11.78,1.76-7.56,0-13.53-1.71-17.88-5.14s-6.54-8.07-6.54-13.94c0-1.36.12-3.06.36-5.11.24-2.05.71-5.21,1.42-9.49l1.95-12.2c.69-4.32,4.42-7.5,8.79-7.5Z"/>
  </g>
  <path class="cls-4" d="M161.54,61.05c0,5.55-4.5,10.05-10.05,10.05-5.55,0-10.05-4.5-10.05-10.05,0-5.55,4.5-10.05,10.05-10.05s10.05,4.5,10.05,10.05Z"/>
  <path class="cls-2" d="M349.55,121.89c0,5.55-4.5,10.05-10.05,10.05-5.55,0-10.05-4.5-10.05-10.05,0-5.55,4.5-10.05,10.05-10.05s10.05,4.5,10.05,10.05Z"/>
</svg>